<svg width="136" height="60" viewBox="0 0 136 60" fill="none" xmlns="http://www.w3.org/2000/svg">
<path d="M7.37397 4L70.2142 52.0367V24.5692H111.756L132 4H70.2142L4 52.0367" stroke="url(#paint0_linear_102_16)" stroke-width="7" stroke-linecap="round" stroke-linejoin="round"/>
<path fill-rule="evenodd" clip-rule="evenodd" d="M73.5569 14.5317C73.5569 13.113 75.2727 11.9629 77.3892 11.9629H99.4251C101.542 11.9629 103.257 13.113 103.257 14.5317C103.257 15.9504 101.542 17.1005 99.4251 17.1005H77.3892C75.2727 17.1005 73.5569 15.9504 73.5569 14.5317Z" fill="url(#paint1_linear_102_16)"/>
<path d="M79.7844 39.1438H86.3844V40.4638L81.3924 51.3118H86.3844V52.7998H79.6644V51.4798L84.5844 40.6318H79.7844V39.1438ZM94.4074 42.6478C94.4074 41.1598 93.6714 40.4158 92.1994 40.4158C90.7274 40.4158 89.9914 41.1598 89.9914 42.6478V49.2958C89.9914 50.7998 90.7274 51.5518 92.1994 51.5518C93.6714 51.5518 94.4074 50.7998 94.4074 49.2958V42.6478ZM88.3114 42.6238C88.3114 41.4878 88.6314 40.5838 89.2714 39.9118C89.9114 39.2398 90.8874 38.9038 92.1994 38.9038C93.5114 38.9038 94.4874 39.2398 95.1274 39.9118C95.7674 40.5838 96.0874 41.4878 96.0874 42.6238V49.3198C96.0874 50.4558 95.7674 51.3598 95.1274 52.0318C94.4874 52.7038 93.5114 53.0398 92.1994 53.0398C90.8874 53.0398 89.9114 52.7038 89.2714 52.0318C88.6314 51.3598 88.3114 50.4558 88.3114 49.3198V42.6238ZM100.801 39.7678C101.873 39.3198 102.849 39.0958 103.729 39.0958C104.625 39.0958 105.361 39.3758 105.937 39.9358C106.513 40.4798 106.801 41.2558 106.801 42.2638V52.7998H105.097V42.4318C105.097 41.2638 104.505 40.6798 103.321 40.6798C102.569 40.6798 101.753 40.8878 100.873 41.3038V52.7998H99.1686V39.1438H100.801V39.7678ZM109.757 49.3198V42.6478C109.757 41.5118 110.077 40.6078 110.717 39.9358C111.373 39.2478 112.357 38.9038 113.669 38.9038C114.981 38.9038 115.949 39.2478 116.573 39.9358C117.213 40.6078 117.533 41.5118 117.533 42.6478V46.8238H111.437V49.2478C111.437 49.9678 111.661 50.5038 112.109 50.8558C112.557 51.2078 113.253 51.3838 114.197 51.3838C115.141 51.3838 116.117 51.2398 117.125 50.9518V52.5358C116.325 52.7918 115.373 52.9198 114.269 52.9198C111.261 52.9198 109.757 51.7198 109.757 49.3198ZM111.437 45.4078H115.901V42.6478C115.901 41.1438 115.157 40.3918 113.669 40.3918C112.181 40.3918 111.437 41.1438 111.437 42.6478V45.4078Z" fill="white"/>
<defs>
<linearGradient id="paint0_linear_102_16" x1="18.972" y1="54.2943" x2="65.5077" y2="-25.4158" gradientUnits="userSpaceOnUse">
<stop stop-color="#DD1173"/>
<stop offset="1" stop-color="#F2A20D"/>
</linearGradient>
<linearGradient id="paint1_linear_102_16" x1="68.7665" y1="19.0271" x2="87.9151" y2="14.8465" gradientUnits="userSpaceOnUse">
<stop stop-color="#DD1173"/>
<stop offset="1" stop-color="#F2A20D"/>
</linearGradient>
</defs>
</svg>
