<svg width="25" height="25" viewBox="0 0 25 25" fill="none" xmlns="http://www.w3.org/2000/svg">
<path d="M21.7965 5.08827C21.2858 4.57727 20.6793 4.17191 20.0119 3.89535C19.3444 3.61879 18.629 3.47644 17.9065 3.47644C17.184 3.47644 16.4686 3.61879 15.8012 3.89535C15.1337 4.17191 14.5273 4.57727 14.0165 5.08827L12.9565 6.14827L11.8965 5.08827C10.8648 4.05657 9.46554 3.47698 8.00651 3.47698C6.54748 3.47698 5.1482 4.05657 4.11651 5.08827C3.08482 6.11996 2.50522 7.51923 2.50522 8.97827C2.50522 10.4373 3.08482 11.8366 4.11651 12.8683L5.17651 13.9283L12.9565 21.7083L20.7365 13.9283L21.7965 12.8683C22.3075 12.3575 22.7129 11.7511 22.9894 11.0836C23.266 10.4162 23.4083 9.70075 23.4083 8.97827C23.4083 8.25578 23.266 7.54037 22.9894 6.87291C22.7129 6.20545 22.3075 5.59902 21.7965 5.08827Z" stroke="white" stroke-linecap="round" stroke-linejoin="round"/>
</svg>
