<svg width="71" height="71" viewBox="0 0 71 71" fill="none" xmlns="http://www.w3.org/2000/svg">
<path d="M26.625 65.0837C28.2589 65.0837 29.5834 63.7592 29.5834 62.1253C29.5834 60.4915 28.2589 59.167 26.625 59.167C24.9912 59.167 23.6667 60.4915 23.6667 62.1253C23.6667 63.7592 24.9912 65.0837 26.625 65.0837Z" stroke="#FAF1F1" stroke-width="2" stroke-linecap="round" stroke-linejoin="round"/>
<path d="M59.1666 65.0837C60.8005 65.0837 62.125 63.7592 62.125 62.1253C62.125 60.4915 60.8005 59.167 59.1666 59.167C57.5328 59.167 56.2083 60.4915 56.2083 62.1253C56.2083 63.7592 57.5328 65.0837 59.1666 65.0837Z" stroke="#FBF7F7" stroke-width="2" stroke-linecap="round" stroke-linejoin="round"/>
<path d="M2.95831 2.95801H14.7916L22.72 42.5701C22.9905 43.9321 23.7315 45.1556 24.8131 46.0263C25.8948 46.8971 27.2483 47.3596 28.6366 47.333H57.3916C58.78 47.3596 60.1335 46.8971 61.2152 46.0263C62.2968 45.1556 63.0378 43.9321 63.3083 42.5701L68.0416 17.7497H17.75" stroke="#FBF3F3" stroke-width="2" stroke-linecap="round" stroke-linejoin="round"/>
</svg>
