<svg width="25" height="25" viewBox="0 0 25 25" fill="none" xmlns="http://www.w3.org/2000/svg">
<path d="M3.87939 6.37207H5.87939H21.8794" stroke="#F0F0F0" stroke-width="2" stroke-linecap="round" stroke-linejoin="round"/>
<path d="M19.8794 6.37207V20.3721C19.8794 20.9025 19.6687 21.4112 19.2936 21.7863C18.9185 22.1614 18.4098 22.3721 17.8794 22.3721H7.87939C7.34896 22.3721 6.84025 22.1614 6.46518 21.7863C6.09011 21.4112 5.87939 20.9025 5.87939 20.3721V6.37207M8.87939 6.37207V4.37207C8.87939 3.84164 9.09011 3.33293 9.46518 2.95786C9.84025 2.58278 10.349 2.37207 10.8794 2.37207H14.8794C15.4098 2.37207 15.9185 2.58278 16.2936 2.95786C16.6687 3.33293 16.8794 3.84164 16.8794 4.37207V6.37207" stroke="#F0F0F0" stroke-width="2" stroke-linecap="round" stroke-linejoin="round"/>
<path d="M10.8794 11.3721V17.3721" stroke="#F0F0F0" stroke-width="2" stroke-linecap="round" stroke-linejoin="round"/>
<path d="M14.8794 11.3721V17.3721" stroke="#F0F0F0" stroke-width="2" stroke-linecap="round" stroke-linejoin="round"/>
</svg>
